<mxfile host="Electron" agent="Mozilla/5.0 (Windows NT 10.0; Win64; x64) AppleWebKit/537.36 (KHTML, like Gecko) draw.io/28.0.4 Chrome/138.0.7204.97 Electron/37.2.1 Safari/537.36" version="28.0.4">
  <diagram name="Page-1" id="4w1xwY0Wq4I9-n-lVzpg">
    <mxGraphModel dx="1453" dy="882" grid="0" gridSize="10" guides="1" tooltips="1" connect="1" arrows="1" fold="1" page="1" pageScale="1" pageWidth="827" pageHeight="1169" math="0" shadow="0">
      <root>
        <mxCell id="0" />
        <mxCell id="1" parent="0" />
        <mxCell id="4AmuRuxly3YjYob_NXIr-14" style="edgeStyle=orthogonalEdgeStyle;rounded=0;orthogonalLoop=1;jettySize=auto;html=1;exitX=0.5;exitY=1;exitDx=0;exitDy=0;" edge="1" parent="1" source="4AmuRuxly3YjYob_NXIr-2" target="4AmuRuxly3YjYob_NXIr-4">
          <mxGeometry relative="1" as="geometry" />
        </mxCell>
        <mxCell id="4AmuRuxly3YjYob_NXIr-2" value="Start&amp;nbsp;" style="shape=ellipse;html=1;dashed=0;whiteSpace=wrap;perimeter=ellipsePerimeter;" vertex="1" parent="1">
          <mxGeometry x="327" y="45" width="190" height="73" as="geometry" />
        </mxCell>
        <mxCell id="4AmuRuxly3YjYob_NXIr-15" value="" style="edgeStyle=orthogonalEdgeStyle;rounded=0;orthogonalLoop=1;jettySize=auto;html=1;" edge="1" parent="1" source="4AmuRuxly3YjYob_NXIr-4" target="4AmuRuxly3YjYob_NXIr-5">
          <mxGeometry relative="1" as="geometry" />
        </mxCell>
        <mxCell id="4AmuRuxly3YjYob_NXIr-4" value="&amp;nbsp;User Inputs Info" style="shape=parallelogram;perimeter=parallelogramPerimeter;whiteSpace=wrap;html=1;fixedSize=1;" vertex="1" parent="1">
          <mxGeometry x="307" y="183" width="230" height="68" as="geometry" />
        </mxCell>
        <mxCell id="4AmuRuxly3YjYob_NXIr-16" value="" style="edgeStyle=orthogonalEdgeStyle;rounded=0;orthogonalLoop=1;jettySize=auto;html=1;" edge="1" parent="1" source="4AmuRuxly3YjYob_NXIr-5" target="4AmuRuxly3YjYob_NXIr-6">
          <mxGeometry relative="1" as="geometry" />
        </mxCell>
        <mxCell id="4AmuRuxly3YjYob_NXIr-5" value="&amp;nbsp;User Inputs Info" style="rounded=0;whiteSpace=wrap;html=1;" vertex="1" parent="1">
          <mxGeometry x="315" y="304" width="216" height="68" as="geometry" />
        </mxCell>
        <mxCell id="4AmuRuxly3YjYob_NXIr-18" style="edgeStyle=orthogonalEdgeStyle;rounded=0;orthogonalLoop=1;jettySize=auto;html=1;exitX=0.5;exitY=1;exitDx=0;exitDy=0;" edge="1" parent="1" source="4AmuRuxly3YjYob_NXIr-6" target="4AmuRuxly3YjYob_NXIr-9">
          <mxGeometry relative="1" as="geometry" />
        </mxCell>
        <mxCell id="4AmuRuxly3YjYob_NXIr-6" value="Check If Email Exists" style="rhombus;whiteSpace=wrap;html=1;" vertex="1" parent="1">
          <mxGeometry x="324.5" y="418" width="195" height="106" as="geometry" />
        </mxCell>
        <mxCell id="4AmuRuxly3YjYob_NXIr-23" style="edgeStyle=orthogonalEdgeStyle;rounded=0;orthogonalLoop=1;jettySize=auto;html=1;entryX=1;entryY=0.5;entryDx=0;entryDy=0;exitX=0.5;exitY=1;exitDx=0;exitDy=0;" edge="1" parent="1" source="4AmuRuxly3YjYob_NXIr-8" target="4AmuRuxly3YjYob_NXIr-13">
          <mxGeometry relative="1" as="geometry" />
        </mxCell>
        <mxCell id="4AmuRuxly3YjYob_NXIr-8" value="Show Error: &quot;Email Already Used&quot;" style="rounded=0;whiteSpace=wrap;html=1;" vertex="1" parent="1">
          <mxGeometry x="586" y="568" width="216" height="68" as="geometry" />
        </mxCell>
        <mxCell id="4AmuRuxly3YjYob_NXIr-19" value="" style="edgeStyle=orthogonalEdgeStyle;rounded=0;orthogonalLoop=1;jettySize=auto;html=1;" edge="1" parent="1" source="4AmuRuxly3YjYob_NXIr-9" target="4AmuRuxly3YjYob_NXIr-10">
          <mxGeometry relative="1" as="geometry" />
        </mxCell>
        <mxCell id="4AmuRuxly3YjYob_NXIr-9" value="&amp;nbsp;Hash Password" style="rounded=0;whiteSpace=wrap;html=1;" vertex="1" parent="1">
          <mxGeometry x="315" y="610" width="216" height="68" as="geometry" />
        </mxCell>
        <mxCell id="4AmuRuxly3YjYob_NXIr-21" value="" style="edgeStyle=orthogonalEdgeStyle;rounded=0;orthogonalLoop=1;jettySize=auto;html=1;" edge="1" parent="1" source="4AmuRuxly3YjYob_NXIr-10" target="4AmuRuxly3YjYob_NXIr-11">
          <mxGeometry relative="1" as="geometry" />
        </mxCell>
        <mxCell id="4AmuRuxly3YjYob_NXIr-10" value="Save User to Database" style="rounded=0;whiteSpace=wrap;html=1;" vertex="1" parent="1">
          <mxGeometry x="314" y="741" width="216" height="68" as="geometry" />
        </mxCell>
        <mxCell id="4AmuRuxly3YjYob_NXIr-20" value="" style="edgeStyle=orthogonalEdgeStyle;rounded=0;orthogonalLoop=1;jettySize=auto;html=1;" edge="1" parent="1" source="4AmuRuxly3YjYob_NXIr-11" target="4AmuRuxly3YjYob_NXIr-12">
          <mxGeometry relative="1" as="geometry" />
        </mxCell>
        <mxCell id="4AmuRuxly3YjYob_NXIr-11" value="Send Confirmation Email" style="rounded=0;whiteSpace=wrap;html=1;" vertex="1" parent="1">
          <mxGeometry x="314" y="841" width="216" height="68" as="geometry" />
        </mxCell>
        <mxCell id="4AmuRuxly3YjYob_NXIr-22" value="" style="edgeStyle=orthogonalEdgeStyle;rounded=0;orthogonalLoop=1;jettySize=auto;html=1;" edge="1" parent="1" source="4AmuRuxly3YjYob_NXIr-12" target="4AmuRuxly3YjYob_NXIr-13">
          <mxGeometry relative="1" as="geometry" />
        </mxCell>
        <mxCell id="4AmuRuxly3YjYob_NXIr-12" value="&amp;nbsp;Show Success&amp;nbsp;" style="rounded=0;whiteSpace=wrap;html=1;" vertex="1" parent="1">
          <mxGeometry x="314" y="950" width="216" height="68" as="geometry" />
        </mxCell>
        <mxCell id="4AmuRuxly3YjYob_NXIr-13" value="End" style="shape=ellipse;html=1;dashed=0;whiteSpace=wrap;perimeter=ellipsePerimeter;" vertex="1" parent="1">
          <mxGeometry x="327" y="1077" width="190" height="73" as="geometry" />
        </mxCell>
        <mxCell id="4AmuRuxly3YjYob_NXIr-17" style="edgeStyle=orthogonalEdgeStyle;rounded=0;orthogonalLoop=1;jettySize=auto;html=1;exitX=1;exitY=0.5;exitDx=0;exitDy=0;entryX=0.5;entryY=0;entryDx=0;entryDy=0;" edge="1" parent="1" source="4AmuRuxly3YjYob_NXIr-24" target="4AmuRuxly3YjYob_NXIr-8">
          <mxGeometry relative="1" as="geometry" />
        </mxCell>
        <mxCell id="4AmuRuxly3YjYob_NXIr-25" value="" style="edgeStyle=orthogonalEdgeStyle;rounded=0;orthogonalLoop=1;jettySize=auto;html=1;exitX=1;exitY=0.5;exitDx=0;exitDy=0;entryX=0;entryY=0.5;entryDx=0;entryDy=0;" edge="1" parent="1" source="4AmuRuxly3YjYob_NXIr-6" target="4AmuRuxly3YjYob_NXIr-24">
          <mxGeometry relative="1" as="geometry">
            <mxPoint x="520" y="471" as="sourcePoint" />
            <mxPoint x="694" y="568" as="targetPoint" />
          </mxGeometry>
        </mxCell>
        <mxCell id="4AmuRuxly3YjYob_NXIr-24" value="YES" style="text;html=1;align=center;verticalAlign=middle;whiteSpace=wrap;rounded=0;" vertex="1" parent="1">
          <mxGeometry x="564" y="456" width="60" height="30" as="geometry" />
        </mxCell>
        <mxCell id="4AmuRuxly3YjYob_NXIr-26" value="NO" style="text;html=1;align=center;verticalAlign=middle;whiteSpace=wrap;rounded=0;" vertex="1" parent="1">
          <mxGeometry x="392" y="544" width="60" height="30" as="geometry" />
        </mxCell>
        <mxCell id="4AmuRuxly3YjYob_NXIr-28" value="&lt;font style=&quot;font-size: 31px;&quot;&gt;User Registration&lt;/font&gt;" style="text;html=1;align=center;verticalAlign=middle;whiteSpace=wrap;rounded=0;" vertex="1" parent="1">
          <mxGeometry x="13" y="160" width="215" height="165" as="geometry" />
        </mxCell>
      </root>
    </mxGraphModel>
  </diagram>
</mxfile>
